<svg viewBox="0 0 340 340" xmlns="http://www.w3.org/2000/svg"><path d="M11.986 206.44A29.628 29.628 0 0 1 26.9 226.268c.365 1.7.716 3.7 1.122 6.014 3.318 18.874 9.494 54 48.2 59.959a235.37 235.37 0 0 0 35.692 2.952c13.242 0 21.433-1.454 24.776-2.2 20.652 15.376 48.974 24.992 84.256 28.558a193.551 193.551 0 0 0 19.453 1.021c44.086 0 67.346-17.04 79.348-32.415a48.525 48.525 0 0 0 9.849-35.929 45.964 45.964 0 0 0-17.923-30.952 65.98 65.98 0 0 0-22.55-10.65 76.748 76.748 0 0 0-22.141-2.5c-8.136.212-27.58-.312-32.449-9.682-.009-.017-.021-.03-.03-.047s-.021-.048-.034-.072c-.188-.334-4.371-7.994-1.742-20.392a30.28 30.28 0 0 0 13.683-10.2c5.5-3.414 7.969-9.886 6.94-18.3a8.615 8.615 0 0 0-4.167-6.388 8.858 8.858 0 0 0-2.506-1.007 28.151 28.151 0 0 0-7.905-8.051 63.73 63.73 0 0 1-9.613-7.919 13.707 13.707 0 0 1-3.806-9.035c0-.1-.006-.2-.01-.3a28.591 28.591 0 0 1 3.1 1.05 18.726 18.726 0 0 0 7 1.372 18.034 18.034 0 0 0 8.854-2.315 101.055 101.055 0 0 0 18.331-13.374 3.461 3.461 0 0 0 .313-4.607c-.155-.2-3.87-4.947-9.724-11.105a3.462 3.462 0 0 0-5.019 4.769 178.565 178.565 0 0 1 7.258 8.116 100.01 100.01 0 0 1-14.547 10.161 11.375 11.375 0 0 1-9.878.556 35.86 35.86 0 0 0-5.68-1.752 92.349 92.349 0 0 1 .87-9.607c.969.161 1.783.261 2.373.319a13.329 13.329 0 0 0 1.337.067 13.168 13.168 0 0 0 9.949-4.475c5.169-5.946 7.271-15.451 8.016-24.178a224.224 224.224 0 0 1 27.22 23.893 7.534 7.534 0 0 1-.016 10.4 208.369 208.369 0 0 1-28.368 24.835 3.462 3.462 0 1 0 4.018 5.639 215.375 215.375 0 0 0 29.35-25.688 14.45 14.45 0 0 0 .057-19.941C268.86 80.9 255.4 70.588 248.873 65.834c3.3-3.2 7.471-9.486 7.471-20.882 0-10.983-5.3-17.555-9.754-21.133a17.038 17.038 0 0 0-16.751-2.764 19.032 19.032 0 0 0-2.263 1.046c-3.6-1.5-12.12-4.671-19.653-4.671a39.074 39.074 0 0 0-17.362 4.815c-7.961 4.445-17.45 13.894-17.45 33.664v24.627c-.093.98-1.186 10.376-9.1 15.471a3.401 3.401 0 0 0-.253.179c-1.156.9-28.24 22.4-19.932 53.434a32.6 32.6 0 0 0 19.463 22.468 473.83 473.83 0 0 0-.782 5.667 32.172 32.172 0 0 0 4.711 21.419c1.027 1.614 2.2 3.366 3.5 5.213-9.948 15.822-11.408 28.476-6.756 42.257A48.681 48.681 0 0 0 180.145 268c-11.759-1.134-28.249-4.378-44.322-13.057-2.149-13 2.16-25.866 6.214-34.433a71.969 71.969 0 0 0 6.989-36.744c-2.038-23.955-15.5-37.038-26.427-43.795a66.259 66.259 0 0 0-23.36-8.93 3.462 3.462 0 0 0-3.32 5.4c4.04 5.816 3.869 12.884 3.014 17.79a30.214 30.214 0 0 1-4.383 10.939c-7.006 11.073-10.693 22.536-10.961 34.071a3.461 3.461 0 1 0 6.921.16c.238-10.261 3.566-20.532 9.89-30.529a37.071 37.071 0 0 0 5.354-13.449 33.756 33.756 0 0 0-.741-15.93c11.665 3.563 34.521 14.389 37.115 44.86a65.058 65.058 0 0 1-6.35 33.2c-3.932 8.311-8.072 20.348-7.375 33.154-3.475-1.545-8.866-1.2-11.906 1.42-5.888-13.63-21.7-43.7-50.253-55-16.67-6.595-34.9-5.577-54.189 3.025a3.467 3.467 0 0 0-.069 6.291Zm138.523-58.61c-6.878-25.7 15.717-44.732 17.4-46.1 11.18-7.308 12.086-20.291 12.119-20.843a2.9 2.9 0 0 0 .006-.209V55.909c0-31.036 26.76-31.549 27.889-31.556 8.1 0 18.363 4.732 18.464 4.779a3.463 3.463 0 0 0 3.449-.3 11.719 11.719 0 0 1 2.5-1.32 10.1 10.1 0 0 1 9.914 1.7c4.758 3.826 7.171 9.121 7.171 15.738 0 6.277-1.474 10.435-3.157 13.147a15.753 15.753 0 0 0-3.176-4.079c-9.076-8.328-11.9-14.651-11.924-14.7a3.46 3.46 0 0 0-3.158-2.11h-.028a3.462 3.462 0 0 0-3.164 2.056c-3.544 7.974-9.723 14.048-14.284 17.74a39.924 39.924 0 0 1-14.387 7.406l-1.871.528a3.461 3.461 0 1 0 1.878 6.663l1.871-.527a46.806 46.806 0 0 0 16.865-8.689 60.846 60.846 0 0 0 13.272-14.71 72.413 72.413 0 0 0 10.249 11.44A9.2 9.2 0 0 1 241.329 66c-.116 12.646-2.549 22.621-6.674 27.368a6.294 6.294 0 0 1-5.38 2.06 33.659 33.659 0 0 1-12.868-4.09c-5.345-3.122-8.12-6.853-9-12.1a3.48 3.48 0 0 0-6.871.753c.355 6.8.052 19.394-5.532 29.971a23.386 23.386 0 0 0-14.12 3.556c-5.558 3.634-9.226 9.7-10.914 18.089-.039.216-3.125 17.15-5.625 33.371-7.062-3.453-11.71-9.207-13.836-17.148Zm18.856 30.827c2.409-18.327 7.367-45.536 7.406-45.748 1.288-6.4 3.925-10.966 7.836-13.556 5.287-3.5 12.035-2.237 12.231-2.234a3.069 3.069 0 0 0 3.015-1.664c4.387-7.239 6.373-15.4 7.194-22.558a29.635 29.635 0 0 0 5.868 4.415 36.48 36.48 0 0 0 6.56 2.977 101.828 101.828 0 0 0-1.044 19 20.614 20.614 0 0 0 5.753 13.584 70.539 70.539 0 0 0 10.661 8.8 22.74 22.74 0 0 1 4.088 3.57c-.21.064-.417.135-.628.195a3.462 3.462 0 0 0 1.9 6.658 42.23 42.23 0 0 0 3.756-1.264 1.887 1.887 0 0 1 1.666.138 1.718 1.718 0 0 1 .845 1.283c.717 5.858-.606 9.8-3.928 11.723a8.894 8.894 0 0 1-5.863.945 11.785 11.785 0 0 1-4.481-1.655 17.942 17.942 0 0 0 .78-2.316 33.211 33.211 0 0 0 .862-4.94 8.516 8.516 0 0 0-2.633-7.084c-1.3-7.371-8.263-11.878-8.573-12.074a3.461 3.461 0 0 0-3.717 5.84 16.069 16.069 0 0 1 4.09 4.089 42.936 42.936 0 0 1-12.289.5 9.683 9.683 0 0 0-7.642 2.488 9.377 9.377 0 0 0-3.043 7.154c.015.592.05 1.163.1 1.718a16.119 16.119 0 0 0 15.106 14.987c.485.04.964.058 1.441.058a16.628 16.628 0 0 0 11.66-4.684 17.959 17.959 0 0 0 5.941 2.5 21.871 21.871 0 0 1-5.276 2.352 3.458 3.458 0 0 0-2.559 2.5c-3.105 12.045-.688 20.964.907 25.01a22.082 22.082 0 0 1-16.458 5.959 11.748 11.748 0 0 0-1.71-2.973c-2.185-2.769-6.169-4.714-11.344-4.173a69.077 69.077 0 0 1-7.116-8.088l4.64-9.8a21.6 21.6 0 0 0 1.3-14.98l-3.363-12.19c.167-.521.335-1.041.507-1.567a77.854 77.854 0 0 0 3.2-14.083 3.462 3.462 0 0 0-6.866-.9 70.921 70.921 0 0 1-2.915 12.828 418.98 418.98 0 0 0-7.848 27.228 15.061 15.061 0 0 0 1.62 11.33 73.221 73.221 0 0 0 13.4 16.509 3.462 3.462 0 0 0 3.28.805c.794-.219 3.951-1.226 6.068 1.371a4.626 4.626 0 0 1 .88 4.075 3.459 3.459 0 0 0 .616 2.952l4.4 5.717a4.813 4.813 0 0 1-.2 6.074l-.123.14a4.689 4.689 0 0 1-6.338.614 129.088 129.088 0 0 1-29.935-32.762 25.23 25.23 0 0 1-3.685-16.793Zm55.51-25.164a1.774 1.774 0 0 1 1.544.431 1.642 1.642 0 0 1 .535 1.4 26.317 26.317 0 0 1-.679 3.908c-1.554 6.035-6.61 7.472-10.477 7.5a9.006 9.006 0 0 1-8.438-11.624c.167-.672 1.58-.959 2.274-.959.105.005 10.072.326 15.241-.656ZM186.1 180.319c.72-2.867 1.89-7.37 3.444-12.8 0 0 2.172 6.975-.43 11.813l-2.751 5.812a8.162 8.162 0 0 1-.263-4.825Zm-59.841 77.061c25.852 15.608 52.948 18.14 64.923 18.14 3.085 0 5.137-.131 5.873-.188.66.036 2.462.117 5.1.117 7.959 0 23.39-.748 37.046-5.785 21.3-7.857 36.719-4.894 36.864-4.865a3.461 3.461 0 1 0 1.4-6.779c-.7-.145-17.37-3.441-40.661 5.149-16.49 6.082-36.6 5.38-39.278 5.254-19.73-4.634-26.331-22.052-26.953-23.821-3.872-15.424 0-26.781 4.556-34.3a134.958 134.958 0 0 0 23.646 23.412 11.514 11.514 0 0 0 7.032 2.38 11.635 11.635 0 0 0 8.717-3.906l.141-.161a11.763 11.763 0 0 0 .472-14.856l-2.246-2.916a29.084 29.084 0 0 0 18.143-6.9c8.264 8.919 25.695 9.95 36.122 9.686a69.512 69.512 0 0 1 20.137 2.263 59.1 59.1 0 0 1 20.2 9.493 39.093 39.093 0 0 1 15.236 26.329 41.007 41.007 0 0 1-8.442 30.769c-12.585 16.123-38.872 34.2-92.648 28.766-34.659-3.5-62.22-12.937-81.933-28.038a120.533 120.533 0 0 1-20.167-27.87c.361-.49 3.838-3.113 6.72-1.373ZM63.7 203.562c27.7 10.957 42.908 42.874 46.909 52.395 5.756 13.7 14.711 25.05 20.031 31.089-8.453 1.238-26.153 2.54-53.368-1.648-33.8-5.2-39.2-35.944-42.429-54.314-.4-2.282-.78-4.437-1.172-6.266a36.411 36.411 0 0 0-12.819-20.761c15.286-5.535 29.674-5.706 42.848-.495Z" fill="#ffffff" class="fill-000000"></path><path d="m218.018 73.464 2.236.346a3.6 3.6 0 0 0 .534.041 3.462 3.462 0 0 0 .525-6.884l-2.236-.345a3.462 3.462 0 0 0-1.059 6.842ZM232.938 73.851a3.574 3.574 0 0 0 .533-.041l2.237-.346a3.462 3.462 0 0 0-1.058-6.842l-2.237.345a3.462 3.462 0 0 0 .525 6.884ZM218.369 198.32a3.462 3.462 0 0 0 3.462-3.461v-1.614a3.462 3.462 0 0 0-6.924 0v1.614a3.462 3.462 0 0 0 3.462 3.461Z" fill="#ffffff" class="fill-000000"></path></svg>