<?xml version="1.0" ?><svg viewBox="0 0 32 32" xmlns="http://www.w3.org/2000/svg"><title/><g data-name="Layer 4" id="Layer_4"><path d="M18,26.47a1,1,0,0,1-1-1V22.2a5.07,5.07,0,0,1,5.07-5.07,3.07,3.07,0,0,0,1.8-.58A3.11,3.11,0,0,0,25,15l2-6a5.05,5.05,0,0,1-3.84,0l-1-.39,0,0h0a2.33,2.33,0,0,0-2.52.82,4.73,4.73,0,0,1-7.2,0,2.33,2.33,0,0,0-2.52-.82h0l0,0-1,.39A5.05,5.05,0,0,1,5,9l2,6a3.08,3.08,0,0,0,2.91,2.1A5.07,5.07,0,0,1,15,22.2v3.11a1,1,0,1,1-2,0V22.2a3.06,3.06,0,0,0-3.07-3.07,5.08,5.08,0,0,1-4.81-3.46L2.05,6.44a1,1,0,0,1,1.66-1l1.1,1.1a3.06,3.06,0,0,0,3.31.68l1-.4.06,0a4.31,4.31,0,0,1,4.74,1.39,2.73,2.73,0,0,0,4.16,0,4.32,4.32,0,0,1,4.74-1.39l.06,0,1,.4a3.06,3.06,0,0,0,3.31-.68l1.1-1.1a1,1,0,0,1,1.66,1l-3.07,9.22A5.18,5.18,0,0,1,25,18.17a5.06,5.06,0,0,1-3,1A3.07,3.07,0,0,0,19,22.2v3.27A1,1,0,0,1,18,26.47Z"/><path d="M16.29,26.87a9.62,9.62,0,0,1-3.14-.52l-1.52-.52a8.37,8.37,0,0,0-2.1-.45,8.75,8.75,0,0,0-3.26.31l-4,1.14a1,1,0,0,1-.54-1.93l4-1.14a11,11,0,0,1,4-.37,10.34,10.34,0,0,1,2.57.55l1.52.52a7.64,7.64,0,0,0,5.31-.13l.59-.23a9.63,9.63,0,0,1,6.61-.18l1.66.55a1.3,1.3,0,0,0,1.32-.31,1,1,0,0,1,1.42,0,1,1,0,0,1,0,1.41,3.29,3.29,0,0,1-3.37.8l-1.66-.56a7.62,7.62,0,0,0-5.24.15l-.59.23A9.74,9.74,0,0,1,16.29,26.87Z"/><path d="M2,16a1,1,0,0,1-1-1V12a1,1,0,0,1,2,0v3A1,1,0,0,1,2,16Z"/><path d="M4,21a1,1,0,0,1-1-1V19a1,1,0,0,1,2,0v1A1,1,0,0,1,4,21Z"/><path d="M24,23a1,1,0,0,1-1-1V21a1,1,0,0,1,2,0v1A1,1,0,0,1,24,23Z"/><path d="M29,19a1,1,0,0,1-1-1V14a1,1,0,0,1,2,0v4A1,1,0,0,1,29,19Z"/><path d="M13,17a1,1,0,0,1-.71-.29l-2-2a1,1,0,0,1,1.42-1.42l2,2a1,1,0,0,1,0,1.42A1,1,0,0,1,13,17Z"/><path d="M19,17a1,1,0,0,1-.71-.29,1,1,0,0,1,0-1.42l2-2a1,1,0,0,1,1.42,1.42l-2,2A1,1,0,0,1,19,17Z"/></g></svg>